<svg xmlns="http://www.w3.org/2000/svg" xmlns:svg="http://www.w3.org/2000/svg" xmlns:xlink="http://www.w3.org/1999/xlink" id="svg5369" width="96" height="48" display="inline" version="1.1"><metadata id="metadata5375"/><defs id="defs5373"><linearGradient id="linearGradient8231-1-4-4-1"><stop id="stop8233-28-5-27-1" offset="0" stop-color="#fff" stop-opacity="0"/><stop id="stop8235-7-3-94-3" offset=".319" stop-color="#fff" stop-opacity=".154"/><stop id="stop8237-7-8-20-2" offset=".543" stop-color="#fff" stop-opacity=".337"/><stop id="stop8239-2-9-1-9" offset="1" stop-color="#fff" stop-opacity="1"/></linearGradient><linearGradient id="linearGradient5767-6"><stop id="stop5769-0" offset="0" stop-color="#bebebe" stop-opacity="0"/><stop id="stop5771-1" offset=".319" stop-color="#fff" stop-opacity="0"/><stop id="stop5773-7" offset=".751" stop-color="#fff" stop-opacity=".429"/><stop id="stop5775-8" offset="1" stop-color="#fff" stop-opacity="1"/></linearGradient><radialGradient id="radialGradient10713" cx="-.068" cy="188.519" r="27.33" fx="-.068" fy="188.519" gradientTransform="matrix(2.229454,-1.2865389,1.2087442,2.0939897,-228.90301,-208.08725)" gradientUnits="userSpaceOnUse" xlink:href="#linearGradient8231-1-4-4-1"/><radialGradient id="radialGradient10715" cx=".054" cy="189.152" r="27.33" fx=".054" fy="189.152" gradientTransform="matrix(1.1252013,-0.60470548,0.56813832,1.0568583,-107.67128,-11.948108)" gradientUnits="userSpaceOnUse" xlink:href="#linearGradient5767-6"/></defs><g id="layer1" display="none"><rect id="rect12451" width="24" height="24" x="0" y="0" fill="#000" fill-opacity="1" fill-rule="nonzero" stroke="none" stroke-width="1" color="#000" display="inline" enable-background="accumulate" overflow="visible" visibility="visible" style="marker:none"/><rect id="rect12453" width="24" height="24" x="0" y="24" fill="#000" fill-opacity="1" fill-rule="nonzero" stroke="none" stroke-width="1" color="#000" display="inline" enable-background="accumulate" overflow="visible" visibility="visible" style="marker:none"/><rect id="rect12455" width="24" height="24" x="24" y="0" fill="#000" fill-opacity="1" fill-rule="nonzero" stroke="none" stroke-width="1" color="#000" display="inline" enable-background="accumulate" overflow="visible" visibility="visible" style="marker:none"/><rect id="rect12457" width="24" height="24" x="24" y="24" fill="#000" fill-opacity="1" fill-rule="nonzero" stroke="none" stroke-width="1" color="#000" display="inline" enable-background="accumulate" overflow="visible" visibility="visible" style="marker:none"/><rect id="rect12459" width="24" height="24" x="48" y="0" fill="#000" fill-opacity="1" fill-rule="nonzero" stroke="none" stroke-width="1" color="#000" display="inline" enable-background="accumulate" overflow="visible" visibility="visible" style="marker:none"/><rect id="rect12461" width="24" height="24" x="48" y="24" fill="#000" fill-opacity="1" fill-rule="nonzero" stroke="none" stroke-width="1" color="#000" display="inline" enable-background="accumulate" overflow="visible" visibility="visible" style="marker:none"/><rect id="rect12463" width="24" height="24" x="72" y="0" fill="#000" fill-opacity="1" fill-rule="nonzero" stroke="none" stroke-width="1" color="#000" display="inline" enable-background="accumulate" overflow="visible" visibility="visible" style="marker:none"/><rect id="rect12465" width="24" height="24" x="72" y="24" fill="#000" fill-opacity="1" fill-rule="nonzero" stroke="none" stroke-width="1" color="#000" display="inline" enable-background="accumulate" overflow="visible" visibility="visible" style="marker:none"/></g><g id="layer2"><g id="g10450-5-3" display="inline" transform="matrix(0.43142675,0,0,0.43298814,218.13188,-592.92581)"><path id="path10452-5" fill="none" stroke="url(#radialGradient10713)" stroke-dasharray="none" stroke-dashoffset="0" stroke-linecap="round" stroke-miterlimit="4" stroke-opacity="1" stroke-width="12.181" d="m -3.4436513,184.72075 c -2.9171108,12.35226 -15.2953817,20.00096 -27.6476417,17.08385 -12.35226,-2.91711 -20.00096,-15.29538 -17.083849,-27.64764 2.449452,-10.372 11.708437,-17.69907 22.365746,-17.69907" display="inline" transform="matrix(-0.16397381,0.61157081,-0.61162275,-0.16377992,-372.32298,1442.5061)"/><path id="path10454-7" fill="none" stroke="url(#radialGradient10715)" stroke-dasharray="none" stroke-dashoffset="0" stroke-linecap="butt" stroke-miterlimit="4" stroke-opacity="1" stroke-width="12.181" d="m -3.4436513,184.72075 c -2.9171108,12.35226 -15.2953817,20.00096 -27.6476417,17.08385 -12.35226,-2.91711 -20.00096,-15.29538 -17.083849,-27.64764 2.449452,-10.372 11.708437,-17.69907 22.365746,-17.69907" display="inline" transform="matrix(-0.63300818,0.01438356,-0.01458424,-0.63300359,-491.4014,1510.996)"/></g><use id="use13294" width="96" height="48" x="0" y="0" transform="matrix(0.70710678,0.70710679,-0.70710679,0.70710678,35.986458,-4.9737924)" xlink:href="#g10450-5-3"/><use id="use13314" width="96" height="48" x="0" y="0" transform="matrix(0.70710678,0.70710679,-0.70710679,0.70710678,43.036943,-21.933639)" xlink:href="#use13294"/><use id="use13334" width="96" height="48" x="0" y="0" transform="matrix(0.70710678,0.70710679,-0.70710679,0.70710678,50.085328,-38.904987)" xlink:href="#use13314"/><use id="use13354" width="96" height="48" x="0" y="0" transform="matrix(0.70710678,0.70710679,-0.70710679,0.70710678,-38.894841,-31.888724)" xlink:href="#use13334"/><use id="use13374" width="96" height="48" x="0" y="0" transform="matrix(0.70710678,0.70710679,-0.70710679,0.70710678,52.971072,2.0670843)" xlink:href="#use13354"/><use id="use13394" width="96" height="48" x="0" y="0" transform="matrix(0.70710678,0.70710679,-0.70710679,0.70710678,60.017834,-14.929741)" xlink:href="#use13374"/><use id="use13414" width="96" height="48" x="0" y="0" transform="matrix(0.86602541,0.50000001,-0.50000001,0.86602541,50.044124,-25.16226)" xlink:href="#use13394"/></g></svg>